<svg xmlns="http://www.w3.org/2000/svg" width="329.16" height="135.52" viewBox="0 0 329.16 135.52"><title>logo-dark</title><path d="M74.71,2.23C74.46,3.5,75,5,80,7.72l.49.27.31,3.69-.37-.23a.31.31,0,0,0-.44.1l-.2.32a.31.31,0,0,0,.1.44l1,.64.3,3.72-.22-.14a.31.31,0,0,0-.44.1l-.2.32a.31.31,0,0,0,.1.44l.87.55.24,3,2.12,1.33,1.54-11.72c2.67,1.4,5.28,2.73,7.12,3.64l.2,3.88,1.4.88,1-3.73,1.19.27-.76-1L98.24,12l-1.41-.88-3.57,1.51c-1.63-1.26-4-3-6.38-4.83l9.88-6.48L94.65,0l-2.8,1.08L91,.53a.32.32,0,0,0-.44.1l-.2.32a.32.32,0,0,0,.1.44l.22.14L87.18,2.88l-1-.64a.32.32,0,0,0-.44.1l-.2.32a.31.31,0,0,0,.1.44l.36.23L82.55,4.66l-.47-.33C77.45,1.1,75.89,1.22,74.86,2A.36.36,0,0,0,74.71,2.23Z" fill="#fea341"/><path d="M100.41,26.59a18.32,18.32,0,0,1-4.33,11.25c-6.14,7.34-20,13.63-42.15,21.54-23.6,8.4-48.6,17.07-50,34.69A55.85,55.85,0,0,1,55.84,17.71c1.11,0,2.21,0,3.3.1A55.7,55.7,0,0,1,94.83,33.59,13.3,13.3,0,0,0,100.41,26.59Z" fill="#09243c"/><path d="M44.57,135.52C6.84,116.06,23.6,91.9,61.38,75,21.38,100.58,31.43,122.27,44.57,135.52Z" fill="#09243c"/><path d="M90.46,49.21c-.33.28-.68.56-1,.84-22,18.29-51.82,25.24-67.2,42.63-11.89,13.45-7.91,22.83-5.89,26.42C4.62,108.9,5,92.34,23.3,81S65.21,64.07,90.46,49.21Z" fill="#fea341"/><path d="M100.41,26.59a18.32,18.32,0,0,1-4.33,11.25c-6.14,7.34-20,13.63-42.15,21.54-23.6,8.4-48.6,17.07-50,34.69A55.85,55.85,0,0,1,55.84,17.71c1.11,0,2.21,0,3.3.1C34.05,17.86,10,41.73,12.42,65.66,19.22,45.25,69.35,48,94.83,33.59A13.3,13.3,0,0,0,100.41,26.59Z" fill="#09243c"/><path d="M106.85,50.83c5.23-14.37,1.22-27.37-9.12-33.9C119,41.55,81.82,64,54.11,87c-14.42,12-16.87,31.85-1.92,39.47A22.68,22.68,0,0,0,67,128.27a55.85,55.85,0,0,0,39.82-77.44Z" fill="#fea341"/><path d="M44.57,135.52C12,109.88,31.28,93,61.38,75,21.38,100.58,31.43,122.27,44.57,135.52Z" fill="#09243c"/><path d="M89.43,50.05c-22,18.29-51.82,25.24-67.2,42.63-11.89,13.45-7.91,22.83-5.89,26.42C-8.88,82,63.61,70.62,89.43,50.05Z" fill="#fea341"/><path d="M146.84,97,133.72,53.2h13.2L159.24,97Zm4,0V86.4h12.88V97Zm4.72,0L166.2,53.2h12.32L167.16,97Z" fill="#09243c"/><path d="M180.36,62.64V53.2H199v9.44Zm10.8-13.76c-2.4,0-4.17-.62-5.32-1.88a6.76,6.76,0,0,1-1.72-4.76,6.89,6.89,0,0,1,1.72-4.84q1.72-1.87,5.32-1.88t5.32,1.88a6.89,6.89,0,0,1,1.72,4.84A6.76,6.76,0,0,1,196.48,47C195.33,48.26,193.56,48.88,191.16,48.88ZM186.2,97V53.2H199V97Z" fill="#09243c"/><path d="M206,97v-9l20.56-24.64v1.28l-1.92-2.4L226,63H206V53.2h34.48v9L220,86.8V85.6l1.92,2.4-1.44-.8h20.72V97Z" fill="#09243c"/><path d="M259.48,98.16a19.19,19.19,0,0,1-8.28-1.68,12.94,12.94,0,0,1-5.56-4.84,13.84,13.84,0,0,1-2-7.56,12.2,12.2,0,0,1,2.48-7.88,14.51,14.51,0,0,1,7-4.56,33.11,33.11,0,0,1,10.32-1.48h9.36v7.12h-9.44a7.42,7.42,0,0,0-5.16,1.64,5.73,5.73,0,0,0-1.8,4.44,5.51,5.51,0,0,0,1.8,4.28,7.37,7.37,0,0,0,5.16,1.64,9.46,9.46,0,0,0,3.88-.76,6.26,6.26,0,0,0,2.84-2.6,10.87,10.87,0,0,0,1.28-5.12l3,3.2a18.51,18.51,0,0,1-2.2,7.68,12.25,12.25,0,0,1-5,4.8A16.28,16.28,0,0,1,259.48,98.16Zm14-1.12v-13h-2.16V70a7,7,0,0,0-1.6-5c-1.07-1.12-2.77-1.68-5.12-1.68-1.17,0-2.72,0-4.64.08s-3.89.14-5.92.24l-5.52.32V53.12c1.23-.1,2.67-.21,4.32-.32s3.36-.18,5.12-.24,3.41-.08,5-.08a29.45,29.45,0,0,1,11.32,1.92,14.56,14.56,0,0,1,7,5.8,18.69,18.69,0,0,1,2.4,10V97Z" fill="#09243c"/><path d="M305,98.16a19.19,19.19,0,0,1-8.28-1.68,12.94,12.94,0,0,1-5.56-4.84,13.84,13.84,0,0,1-2-7.56,12.2,12.2,0,0,1,2.48-7.88,14.51,14.51,0,0,1,7-4.56,33.11,33.11,0,0,1,10.32-1.48h9.36v7.12h-9.44a7.42,7.42,0,0,0-5.16,1.64,5.73,5.73,0,0,0-1.8,4.44,5.51,5.51,0,0,0,1.8,4.28,7.37,7.37,0,0,0,5.16,1.64,9.46,9.46,0,0,0,3.88-.76,6.26,6.26,0,0,0,2.84-2.6,10.87,10.87,0,0,0,1.28-5.12l3,3.2a18.51,18.51,0,0,1-2.2,7.68,12.25,12.25,0,0,1-5,4.8A16.28,16.28,0,0,1,305,98.16ZM319,97v-13h-2.16V70a7,7,0,0,0-1.6-5c-1.07-1.12-2.77-1.68-5.12-1.68-1.17,0-2.72,0-4.64.08s-3.89.14-5.92.24l-5.52.32V53.12c1.23-.1,2.67-.21,4.32-.32s3.36-.18,5.12-.24,3.41-.08,5-.08a29.45,29.45,0,0,1,11.32,1.92,14.56,14.56,0,0,1,7,5.8,18.69,18.69,0,0,1,2.4,10V97Z" fill="#09243c"/></svg>